<svg xmlns="http://www.w3.org/2000/svg" viewBox="0 0 306 138" version="1.1"><title>Group 2</title><desc>Created with Sketch.</desc><defs><linearGradient x1="50%" y1="0%" x2="50%" y2="100%" id="multibanking-linearGradient-1"><stop stop-color="#F9BE50" offset="0%"/><stop stop-color="#F76B1C" offset="100%"/></linearGradient></defs><g id="🖥-Layout" stroke="none" stroke-width="1" fill="none" fill-rule="evenodd"><g id="Detailseite#-Multibanking" transform="translate(-608.000000, -361.000000)"><g id="Group-2" transform="translate(608.000000, 361.000000)"><path d="M274,21 L274,0 L285,0 L285,21 L306,21 L306,32 L285,32 L285,53 L274,53 L274,32 L253,32 L253,21 L274,21 Z" id="Combined-Shape" fill="url(#multibanking-linearGradient-1)"/><g id="Group-4-Copy-2" transform="translate(0.000000, 97.000000)" fill="#000000"><path d="M0,40.6534476 L0,0.653447568 L9.4600939,0.653447568 C14.1596244,0.653447568 17.2723005,1.43305776 19.6525822,3.11221818 C22.3380282,5.09122868 24.0469484,8.50951953 24.0469484,11.8678404 C24.0469484,14.8063711 23.0704225,17.0252617 20.6901408,19.3041222 C24.1079812,21.4030728 26,24.8813336 26,28.9592946 C26,32.5574955 24.4741784,35.5559963 21.5446009,37.8348569 C18.7981221,39.8738374 16.0516432,40.6534476 11.3521127,40.6534476 L0,40.6534476 Z M7,16.6534476 L10.006135,16.6534476 C12.8895706,16.6534476 14.0552147,16.3575896 15.2208589,15.4700156 C16.3865031,14.5232701 17,13.2214949 17,11.6238618 C17,10.0262286 16.3251534,8.54693869 15.2822086,7.77770792 C14.1779141,7.00847715 12.6441718,6.65344757 10.006135,6.65344757 L7,6.65344757 L7,16.6534476 Z M7,34.6534476 L11,34.6534476 C14.1875,34.6534476 15.5625,34.3512498 17,33.2633377 C18.3125,32.2963047 19,30.8457553 19,29.1534476 C19,27.2798212 18,25.5270739 16.5,24.6809201 C15.125,23.8952058 13.5625,23.6534476 10.4375,23.6534476 L7,23.6534476 L7,34.6534476 Z" id="B"/><path d="M35.6289628,40.4630687 L28,40.4630687 L41.8901065,1.19037887 L50.7135029,1.19037887 L64.6228745,40.4630687 L56.9939117,40.4630687 L53.7188519,30.7791291 L38.8847576,30.7791291 L35.6289628,40.4630687 Z M40.8112633,25.0646459 L51.7923462,25.0646459 L46.4559252,9.24434847 L46.1476843,9.24434847 L40.8112633,25.0646459 Z M102.247569,1.19037887 L102.247569,40.4630687 L95.8901005,40.4630687 L77.2993199,13.712384 L76.9718139,13.712384 L76.9718139,40.4630687 L69.8244775,40.4630687 L69.8244775,1.19037887 L76.2204766,1.19037887 L94.7919922,27.9602397 L95.1387632,27.9602397 L95.1387632,1.19037887 L102.247569,1.19037887 Z M110.011426,40.4630687 L110.011426,1.19037887 L117.158762,1.19037887 L117.158762,19.235106 L117.640389,19.235106 L133.03317,1.19037887 L141.760241,1.19037887 L126.502315,18.8132314 L141.895096,40.4630687 L133.302881,40.4630687 L121.53193,23.626437 L117.158762,28.7656367 L117.158762,40.4630687 L110.011426,40.4630687 Z M153.877997,1.19037887 L153.877997,40.4630687 L146.730661,40.4630687 L146.730661,1.19037887 L153.877997,1.19037887 Z M194.064922,1.19037887 L194.064922,40.4630687 L187.707453,40.4630687 L169.116672,13.712384 L168.789166,13.712384 L168.789166,40.4630687 L161.64183,40.4630687 L161.64183,1.19037887 L168.037829,1.19037887 L186.609344,27.9602397 L186.956115,27.9602397 L186.956115,1.19037887 L194.064922,1.19037887 Z M228.202642,13.7315601 C226.854088,9.57034247 223.656088,7.03909489 218.897619,7.03909489 C212.54015,7.03909489 208.012862,11.9481811 208.012862,20.7883715 C208.012862,29.6860903 212.50162,34.6143527 219.09027,34.6143527 C224.561546,34.6143527 228.645738,31.258532 228.799859,25.4673444 L219.860872,25.4673444 L219.860872,19.9062701 L235.870135,19.9062701 L235.870135,24.6235952 C235.870135,34.7485855 228.838389,41 219.05174,41 C208.186247,41 200.826995,33.2912005 200.826995,20.865076 C200.826995,8.20883809 208.475223,0.653447568 218.801294,0.653447568 C227.528365,0.653447568 234.32893,6.02276063 235.542629,13.7315601 L228.202642,13.7315601 Z" id="BANKING"/></g><g id="Group-2-Copy-2" transform="translate(0.000000, 23.000000)" fill="#000000"><path d="M27.0589236,58.3469725 L11.9318068,25.7284736 L11.9318068,58.1817627 L-5.65769653e-13,58.1817627 L-5.65769653e-13,1.13686838e-13 L13.9850056,-4.97379915e-14 L33.7907078,41.4113573 L50.2514217,2.13162821e-13 L64.2364273,2.13162821e-13 L64.2103282,0.0661648011 L64.2103282,58.2109374 L52.2785214,58.2109374 L52.2785214,30.3148756 L41.1625992,58.4952108 L27,58.4952108 L27.0589236,58.3469725 Z" id="Combined-Shape"/><path d="M87,0 L87,34 L87.0106742,34 C87.2724524,40.1193081 92.3162529,45 98.5,45 C104.683747,45 109.727548,40.1193081 109.989326,34 L110,34 L110,0 L123,0 L123,34 L122.994999,34 C122.998328,34.1662656 123,34.3329375 123,34.5 C123,48.0309764 112.030976,59 98.5,59 C84.9690236,59 74,48.0309764 74,34.5 C74,34.3329375 74.0016721,34.1662656 74.0050005,34 L74,34 L74,0 L87,0 Z" id="Combined-Shape"/><path d="M197,13 L197,58 L184,58 L184,13 L168,13 L168,-9.41469125e-14 L214,-9.05941988e-14 L214,13 L197,13 Z M147,45 L172,45 L172,58 L147,58 L134,58 L134,-9.23705556e-14 L147,-9.23705556e-14 L147,45 Z M223,-9.23705556e-14 L236,-9.23705556e-14 L236,58 L223,58 L223,-9.23705556e-14 Z" id="Combined-Shape"/></g></g></g></g></svg>